# xmcd
#
# Track frame offsets:
#	182
#	10540
#	24287
#	36755
#	52097
#	66792
#	79290
#	92240
#	104082
#	116217
#	128890
#	142192
#	156497
#	169137
#	179437
#	191920
#
# Disc length: 2702 seconds
#
# Revision: 2
# Processed by: cddbd v1.5.2PL0 Copyright (c) Steve Scherf et al.
# Submitted via: audiograbber 1.83.01
#
DISCID=eb0a8c10
DTITLE=Solomon Burke - King Solomon
DYEAR=1997
DGENRE=Blues
TTITLE0=It's Been A Change
TTITLE1=Take Me (Just As  Am)
TTITLE2=Time Is A Thief
TTITLE3=Keep A Light In The Window Till I Come Home
TTITLE4=Baby Come On Home
TTITLE5=Detroit City
TTITLE6=Someone Is Watching
TTITLE7=Party People
TTITLE8=When She Touches Me (Nothing Else Maters)
TTITLE9=Woman, How Do You Make Me Love You Like I Do
TTITLE10=It's Just A Matter Of Time
TTITLE11=Presets For Christmas
TTITLE12=Tonight's The Night
TTITLE13=Only Love (Can Save Me Now)
TTITLE14=I Don't Want You Anymore
TTITLE15=(No, No, No) I Can't Stop Loving You Now
EXTD=Sequel Records. RSA CD 862
EXTT0=
EXTT1=
EXTT2=
EXTT3=
EXTT4=
EXTT5=
EXTT6=
EXTT7=
EXTT8=
EXTT9=
EXTT10=
EXTT11=
EXTT12=
EXTT13=
EXTT14=
EXTT15=
PLAYORDER=
